<svg width="233" height="234" xmlns="http://www.w3.org/2000/svg" xmlns:xlink="http://www.w3.org/1999/xlink" xml:space="preserve" overflow="hidden"><defs><clipPath id="clip0"><rect x="1883" y="1503" width="233" height="234"/></clipPath></defs><g clip-path="url(#clip0)" transform="translate(-1883 -1503)"><path d="M1947 1721C1935.4 1721 1926 1711.6 1926 1700L1926 1539C1926 1527.4 1935.4 1518 1947 1518L1947 1518C1958.6 1518 1968 1527.4 1968 1539L1968 1700C1968 1711.6 1958.6 1721 1947 1721Z" fill="#009644" fill-rule="evenodd"/><path d="M2000 1681C1988.4 1681 1979 1671.6 1979 1660L1979 1580C1979 1568.4 1988.4 1559 2000 1559L2000 1559C2011.6 1559 2021 1568.4 2021 1580L2021 1660C2021 1671.6 2011.6 1681 2000 1681Z" fill="#009644" fill-rule="evenodd"/><path d="M2052 1641C2040.4 1641 2031 1631.6 2031 1620L2031 1619C2031 1607.4 2040.4 1598 2052 1598L2052 1598C2063.6 1598 2073 1607.4 2073 1619L2073 1620C2073 1631.6 2063.6 1641 2052 1641Z" fill="#009644" fill-rule="evenodd"/></g></svg>