<svg width="803" height="207" xmlns="http://www.w3.org/2000/svg" xmlns:xlink="http://www.w3.org/1999/xlink" xml:space="preserve" overflow="hidden"><defs><clipPath id="clip0"><rect x="447" y="135" width="803" height="207"/></clipPath></defs><g clip-path="url(#clip0)" transform="translate(-447 -135)"><path d="M473.01 247.346 473.01 315.167 477.592 315.167C487.642 315.167 495.499 312.249 501.164 306.414 506.829 300.579 509.662 292.462 509.662 282.065 509.662 271.768 506.878 263.406 501.312 256.982 495.745 250.558 487.839 247.346 477.592 247.346ZM884.735 186.013 870.547 270.494 899.661 270.494 885.474 186.013ZM1184.97 161.833 1184.97 224.936 1186.16 224.936C1200.74 224.936 1208.03 214.763 1208.03 194.417 1208.03 172.793 1200.34 161.932 1184.97 161.833ZM473.01 161.833 473.01 223.166 475.375 223.166C484.439 223.166 491.657 220.316 497.026 214.615 502.396 208.915 505.081 201.297 505.081 191.763 505.081 182.229 502.494 174.857 497.322 169.647 492.149 164.438 484.834 161.833 475.375 161.833ZM1158.96 137.654 1180.69 137.654C1198.03 137.654 1211.25 142.74 1220.37 152.913 1229.48 163.087 1234.04 176.626 1234.04 193.532 1234.04 212.699 1227.04 227.098 1213.05 236.731 1223.89 244.397 1233.1 264.793 1240.69 297.917L1250 339.346 1222.74 339.346 1214.92 304.551C1209.34 280.175 1204.48 264.67 1200.34 258.035 1196.2 251.401 1191.08 248.427 1184.97 249.115L1184.97 339.346 1158.96 339.346ZM1048.6 137.654 1120.58 137.654 1120.58 161.833 1074.62 161.833 1074.62 222.135 1116.74 222.135 1116.74 246.314 1074.62 246.314 1074.62 315.167 1123.09 315.167 1123.09 339.346 1048.6 339.346ZM937.374 137.654 964.715 137.654 983.854 273.59 1002.7 137.654 1029.89 137.654 992.453 342 974.802 342ZM447 137.654 477.888 137.654C493.159 137.654 505.844 142.571 515.943 152.406 526.042 162.24 531.091 173.942 531.091 187.513 531.091 205.706 522.323 220.211 504.785 231.029 525.377 240.657 535.673 257.359 535.673 281.134 535.673 298.328 530.106 312.328 518.973 323.135 507.839 333.943 492.026 339.346 471.533 339.346L447 339.346ZM871.729 136.474 898.774 136.474 936.608 339.346 911.484 339.346 904.243 294.673 866.704 294.673 858.724 339.346 833.6 339.346ZM795.202 135C802 135 809.242 136.769 816.927 140.308L816.927 164.782C809.833 160.654 803.774 158.59 798.749 158.59 785.645 158.59 779.093 164.978 779.093 177.756 779.093 182.474 780.202 188.151 782.418 194.785 784.635 201.42 790.497 213.51 800.005 231.055 809.513 248.599 815.671 261.967 818.479 271.157 821.287 280.347 822.691 288.481 822.691 295.558 822.691 309.318 818.824 320.499 811.089 329.099 803.355 337.7 793.33 342 781.014 342 772.147 342 763.575 339.395 755.299 334.186L755.299 307.353C763.083 314.724 770.62 318.41 777.911 318.41 783.33 318.41 787.96 316.508 791.803 312.704 795.645 308.9 797.567 304.315 797.567 298.949 797.567 294.329 796.483 288.726 794.315 282.141 792.148 275.555 786.31 263.392 776.802 245.651 767.295 227.909 761.112 214.468 758.255 205.327 755.398 196.186 753.969 188.126 753.969 181.147 753.969 167.583 757.836 156.501 765.57 147.9 773.305 139.3 783.182 135 795.202 135Z" fill-rule="evenodd"/><path d="M595 341C583.402 341 574 331.598 574 320L574 158.999C574 147.401 583.402 137.999 595 137.999L595 138C606.598 138 616 147.402 616 159L616 320C616 331.598 606.598 341 595 341Z" fill="#009644" fill-rule="evenodd"/><path d="M648 301C636.402 301 627 291.598 627 280L627 200C627 188.402 636.402 179 648 179L648 179C659.598 179 669 188.402 669 200L669 280C669 291.598 659.598 301 648 301Z" fill="#009644" fill-rule="evenodd"/><path d="M700 261C688.402 261 679 251.598 679 240L679 239C679 227.402 688.402 218 700 218L700 218C711.598 218 721 227.402 721 239L721 240C721 251.598 711.598 261 700 261Z" fill="#009644" fill-rule="evenodd"/></g></svg>